<svg xmlns="http://www.w3.org/2000/svg" xmlns:xlink="http://www.w3.org/1999/xlink" viewBox="0 0 750 500"><defs><style>.cls-1,.cls-5,.cls-8,.cls-9{fill:none;}.cls-2{fill:#5559f4;}.cls-3{clip-path:url(#clip-path);}.cls-4{fill:#3e43d6;}.cls-5{stroke:#162639;}.cls-5,.cls-8{stroke-linecap:round;stroke-width:2px;}.cls-5,.cls-8,.cls-9{stroke-miterlimit:10;}.cls-6{fill:#a8abff;}.cls-7{fill:#ecbfb2;}.cls-8{stroke:#e5a519;}.cls-9{stroke:#d66e00;stroke-width:3px;}</style><clipPath id="clip-path"><rect class="cls-1" width="750" height="500"/></clipPath></defs><g id="Capa_2" data-name="Capa 2"><g id="BACKGROUND"><rect class="cls-2" width="750" height="500"/></g><g id="OBJECTS"><g class="cls-3"><path class="cls-4" d="M403.24-26.27C390.1-15.58,390.63,6.3,401,19.75s27.58,19.69,44.33,21.86,33.77.94,50.56,2.82S530,51.92,541,64.84c16.13,18.93,14,46.84,12.85,71.77s1.73,54.21,22.67,67.52,49.7,3.47,72.89,12.63c17,6.73,28.62,22.78,37.2,39.08s15.29,33.88,27.12,48,31.42,26.76,49,21.8V-32.85c2.76,0,5.51.07,8.27.1Z"/><path class="cls-4" d="M-57.34,105.8c46-14.73,98.5-7.76,139.09,18.46s68.5,71.19,74,119.2c3.59,31.33-1.09,66,17.27,91.69,11.46,16,30.19,25.37,49.2,30.42,36.64,9.73,75.3,5.51,113.2,6.55s78.61,9,104.39,36.74c26.75,28.82,30.83,71.36,33.55,110.58H-26.77c-.52-5.22-7.2-16.65-7.72-21.88V162.93l-21.65-.74C-55.76,145.92-57.71,122.07-57.34,105.8Z"/></g><g class="cls-3"><path class="cls-5" d="M118.51,392c3.58,2.33,8.87.86,11.26-2.69s2-8.54-.38-12.1c-1.64-2.48-4.36-4.42-7.33-4.43s-6,2.36-6,5.33c-.05,3.42,3.92,6,7.23,5.15s5.57-4.2,5.88-7.61-1-6.76-2.78-9.68a15.19,15.19,0,0,0-5.86-5.88,7.78,7.78,0,0,0-8,.36c-2.24,1.69-3,5.32-1.07,7.4,2.19,2.42,6.56,1.48,8.43-1.19s1.76-6.27.87-9.41c-1.43-5-5-9.72-10.06-11s-11.21,2-11.69,7.22c-.26,2.8,1.86,6,4.65,5.67a4.36,4.36,0,0,0,3.41-3.41,8.62,8.62,0,0,0-.58-5,17.54,17.54,0,0,0-11.85-10.58"/><path class="cls-6" d="M212.72,465.66a7.51,7.51,0,0,0,1.08,5.22,6.7,6.7,0,0,0,2.24,2.51,3.49,3.49,0,0,0,3.25.3,3.72,3.72,0,0,0,1.89-2.71,11.22,11.22,0,0,0-.06-3.42,6.43,6.43,0,0,0-1.34-3.84A4.08,4.08,0,0,0,212.72,465.66Z"/><path class="cls-6" d="M273,480.49a6.65,6.65,0,0,0,6.57,1.37,5.68,5.68,0,0,0,3.68-5.46c-.18-3-3.18-5.36-6.21-5.5C270.9,470.62,268.29,476.31,273,480.49Z"/><path class="cls-6" d="M210,494.25a6.63,6.63,0,0,0,6.56,1.37,5.68,5.68,0,0,0,3.69-5.45c-.18-3-3.19-5.37-6.21-5.51C208,484.39,205.37,490.07,210,494.25Z"/><path class="cls-6" d="M241.08,479a7.1,7.1,0,0,0,4.38,3.44,5.36,5.36,0,0,0,5-.68,4.22,4.22,0,0,0,1-4.74,5.42,5.42,0,0,0-3.93-3C243.79,473.28,238.45,473.76,241.08,479Z"/><path class="cls-6" d="M236.3,462.29a7.43,7.43,0,0,0,3.59-1.62c1.05-.81,2-1.75,3.05-2.56a5.52,5.52,0,0,0,1.32-1.23,2.82,2.82,0,0,0-.49-3.35,4.92,4.92,0,0,0-3.3-1.34c-2.79-.17-6.63,1.61-8,4.21A4,4,0,0,0,236.3,462.29Z"/><path class="cls-6" d="M244.23,500.08a4.73,4.73,0,0,0,5.48,3,4.28,4.28,0,0,0,2.81-5.4,5.15,5.15,0,0,0-2.56-2.58c-1.81-.88-3.61-1.47-4.92.3A5.24,5.24,0,0,0,244.23,500.08Z"/><path class="cls-6" d="M226.63,489a5.18,5.18,0,0,0,3.47,4.59,2.81,2.81,0,0,0,3.13-1.05,4.12,4.12,0,0,0,.08-2.94,11,11,0,0,0-1.51-4.17C228.76,481.14,226.31,485.62,226.63,489Z"/><path class="cls-6" d="M268.64,497.86a4.58,4.58,0,0,0,3.34-.62,3,3,0,0,0,1.69-2.76c-.32-2.44-4.44-3.65-6.32-2.37C265.05,493.69,266.06,497.27,268.64,497.86Z"/><path class="cls-6" d="M253.62,461.76a5.45,5.45,0,0,0,4.77,2.17,7.59,7.59,0,0,0,4.83-2.34,7,7,0,0,0,2-3.81,4.63,4.63,0,0,0-1.26-4c-1.5-1.44-4-1.43-5.84-.55C255.14,454.62,251.17,458.21,253.62,461.76Z"/><path class="cls-7" d="M17.79,231.75a1.88,1.88,0,0,0,0-3.75,1.88,1.88,0,0,0,0,3.75Z"/><path class="cls-7" d="M43.67,237.29a1.88,1.88,0,0,0,0-3.75,1.88,1.88,0,0,0,0,3.75Z"/><path class="cls-7" d="M-.25,248.12a1.88,1.88,0,0,0,0-3.75,1.88,1.88,0,0,0,0,3.75Z"/><path class="cls-7" d="M19.35,262.24a1.88,1.88,0,0,0,0-3.75,1.88,1.88,0,0,0,0,3.75Z"/><path class="cls-7" d="M24.82,247.21a1.88,1.88,0,0,0,0-3.75,1.88,1.88,0,0,0,0,3.75Z"/><path class="cls-7" d="M65.37,262.7a1.88,1.88,0,0,0,0-3.75,1.88,1.88,0,0,0,0,3.75Z"/><path class="cls-7" d="M36.21,269.08a1.88,1.88,0,0,0,0-3.75,1.88,1.88,0,0,0,0,3.75Z"/><path class="cls-7" d="M45.32,255.41a1.88,1.88,0,0,0,0-3.75,1.88,1.88,0,0,0,0,3.75Z"/><path class="cls-7" d="M57.63,290.5a1.88,1.88,0,0,0,0-3.75,1.88,1.88,0,0,0,0,3.75Z"/><path class="cls-7" d="M85,273.64a1.88,1.88,0,0,0,0-3.75,1.88,1.88,0,0,0,0,3.75Z"/><path class="cls-7" d="M82.23,237.64a1.88,1.88,0,0,0,0-3.75,1.88,1.88,0,0,0,0,3.75Z"/><path class="cls-7" d="M63.55,241.74a1.88,1.88,0,0,0,0-3.75,1.88,1.88,0,0,0,0,3.75Z"/><path class="cls-7" d="M60.36,217.59a1.88,1.88,0,0,0,0-3.75,1.88,1.88,0,0,0,0,3.75Z"/><path class="cls-7" d="M42.59,203.46a1.88,1.88,0,0,0,0-3.75,1.88,1.88,0,0,0,0,3.75Z"/><path class="cls-7" d="M34.39,219.87a1.88,1.88,0,0,0,0-3.75,1.88,1.88,0,0,0,0,3.75Z"/><path class="cls-7" d="M10.24,275.92a1.88,1.88,0,0,0,0-3.75,1.88,1.88,0,0,0,0,3.75Z"/><path class="cls-7" d="M28.92,290.5a1.88,1.88,0,0,0,0-3.75,1.88,1.88,0,0,0,0,3.75Z"/><path class="cls-7" d="M41.68,286.85a1.88,1.88,0,0,0,0-3.75,1.88,1.88,0,0,0,0,3.75Z"/><path class="cls-7" d="M53.53,275a1.88,1.88,0,0,0,0-3.75,1.88,1.88,0,0,0,0,3.75Z"/><path class="cls-7" d="M80,288.22a1.88,1.88,0,0,0,0-3.75,1.88,1.88,0,0,0,0,3.75Z"/><path class="cls-7" d="M8,214.4a1.88,1.88,0,0,0,0-3.75,1.88,1.88,0,0,0,0,3.75Z"/><path class="cls-7" d="M28.92,204.83a1.88,1.88,0,0,0,0-3.75,1.88,1.88,0,0,0,0,3.75Z"/><path class="cls-7" d="M359.28,380.32a1.88,1.88,0,0,0,0-3.75,1.88,1.88,0,0,0,0,3.75Z"/><path class="cls-7" d="M385.15,385.86a1.88,1.88,0,0,0,0-3.75,1.88,1.88,0,0,0,0,3.75Z"/><path class="cls-7" d="M341.24,396.69a1.88,1.88,0,0,0,0-3.75,1.88,1.88,0,0,0,0,3.75Z"/><path class="cls-7" d="M360.83,410.81a1.88,1.88,0,0,0,0-3.75,1.88,1.88,0,0,0,0,3.75Z"/><path class="cls-7" d="M366.3,395.78a1.88,1.88,0,0,0,0-3.75,1.88,1.88,0,0,0,0,3.75Z"/><path class="cls-7" d="M377.7,417.65a1.88,1.88,0,0,0,0-3.75,1.88,1.88,0,0,0,0,3.75Z"/><path class="cls-7" d="M386.81,404a1.88,1.88,0,0,0,0-3.75,1.88,1.88,0,0,0,0,3.75Z"/><path class="cls-7" d="M375.87,368.43a1.88,1.88,0,0,0,0-3.75,1.88,1.88,0,0,0,0,3.75Z"/><path class="cls-7" d="M335.32,414.46a1.88,1.88,0,0,0,0-3.75,1.88,1.88,0,0,0,0,3.75Z"/><path class="cls-7" d="M351.72,424.48a1.88,1.88,0,0,0,0-3.75,1.88,1.88,0,0,0,0,3.75Z"/><path class="cls-7" d="M323,391.67a1.88,1.88,0,0,0,0-3.75,1.88,1.88,0,0,0,0,3.75Z"/><path class="cls-7" d="M329.85,373a1.88,1.88,0,0,0,0-3.75,1.88,1.88,0,0,0,0,3.75Z"/><path class="cls-8" d="M141.24,221.18c6.17,2,13.64-1.65,17.56-8.48a17.62,17.62,0,0,0,2.46-8.27c.08-5.55-3.26-10-7.09-12.54-4.52-3-10.27-4.08-15.33-1.36C125.72,197.57,130.32,217.72,141.24,221.18Z"/><path class="cls-9" d="M146.89,437.81a10.18,10.18,0,0,0,11.78,6.89,10.39,10.39,0,0,0,7.46-11.5C163.65,419.31,143.31,424.78,146.89,437.81Z"/><path class="cls-9" d="M173.57,465c2.88,1,6.36,1.05,8.71-.9,7.35-6.08.24-18.75-8.48-17.68C162.82,447.79,164.42,461.83,173.57,465Z"/><path class="cls-9" d="M140.36,464.5a9.83,9.83,0,0,0,5.57,10.76,10,10,0,0,0,11.7-3.27c3.71-5.12,1.33-12.95-4.48-15.39C148.13,454.49,141.44,459.56,140.36,464.5Z"/><path class="cls-7" d="M116.62,190.66a31.1,31.1,0,0,1-4.51,3.51,40.08,40.08,0,0,1-28.3,5.66c-17.44-3.14-31.21-19-31.89-36.85-.38-9.9,14.14-12,21.16-13A101,101,0,0,1,109,151.11c8.83,1.94,22,6,19,17.85C125.85,177.11,122.9,184.75,116.62,190.66Z"/><path class="cls-7" d="M696.8,324.58a1.88,1.88,0,0,0,0-3.75,1.88,1.88,0,0,0,0,3.75Z"/><path class="cls-7" d="M723,330.19a1.88,1.88,0,0,0,0-3.75,1.88,1.88,0,0,0,0,3.75Z"/><path class="cls-7" d="M678.56,341.14a1.88,1.88,0,0,0,0-3.75,1.88,1.88,0,0,0,0,3.75Z"/><path class="cls-7" d="M698.38,355.43a1.88,1.88,0,0,0,0-3.75,1.88,1.88,0,0,0,0,3.75Z"/><path class="cls-7" d="M703.91,340.22a1.88,1.88,0,0,0,0-3.75,1.88,1.88,0,0,0,0,3.75Z"/><path class="cls-7" d="M745,355.89a1.88,1.88,0,0,0,0-3.75,1.88,1.88,0,0,0,0,3.75Z"/><path class="cls-7" d="M715.44,362.35a1.88,1.88,0,0,0,0-3.75,1.88,1.88,0,0,0,0,3.75Z"/><path class="cls-7" d="M724.66,348.52a1.88,1.88,0,0,0,0-3.75,1.88,1.88,0,0,0,0,3.75Z"/><path class="cls-7" d="M737.11,384a1.88,1.88,0,0,0,0-3.75,1.88,1.88,0,0,0,0,3.75Z"/><path class="cls-7" d="M743.1,334.68a1.88,1.88,0,0,0,0-3.75,1.88,1.88,0,0,0,0,3.75Z"/><path class="cls-7" d="M739.88,310.25a1.88,1.88,0,0,0,0-3.75,1.88,1.88,0,0,0,0,3.75Z"/><path class="cls-7" d="M721.9,296a1.88,1.88,0,0,0,0-3.75,1.88,1.88,0,0,0,0,3.75Z"/><path class="cls-7" d="M713.6,312.55a1.88,1.88,0,0,0,0-3.75,1.88,1.88,0,0,0,0,3.75Z"/><path class="cls-7" d="M672.56,359.12a1.88,1.88,0,0,0,0-3.75,1.88,1.88,0,0,0,0,3.75Z"/><path class="cls-7" d="M689.16,369.26a1.88,1.88,0,0,0,0-3.75,1.88,1.88,0,0,0,0,3.75Z"/><path class="cls-7" d="M708.06,384a1.88,1.88,0,0,0,0-3.75,1.88,1.88,0,0,0,0,3.75Z"/><path class="cls-7" d="M721,380.33a1.88,1.88,0,0,0,0-3.75,1.88,1.88,0,0,0,0,3.75Z"/><path class="cls-7" d="M733,368.34a1.88,1.88,0,0,0,0-3.75,1.88,1.88,0,0,0,0,3.75Z"/><path class="cls-7" d="M660.11,336.07a1.88,1.88,0,0,0,0-3.75,1.88,1.88,0,0,0,0,3.75Z"/><path class="cls-7" d="M667,317.16a1.88,1.88,0,0,0,0-3.75,1.88,1.88,0,0,0,0,3.75Z"/><path class="cls-7" d="M686.85,307a1.88,1.88,0,0,0,0-3.75,1.88,1.88,0,0,0,0,3.75Z"/><path class="cls-7" d="M708.06,297.34a1.88,1.88,0,0,0,0-3.75,1.88,1.88,0,0,0,0,3.75Z"/><path class="cls-9" d="M691.34-3.83a10.15,10.15,0,0,0,3.33,13.21,10.38,10.38,0,0,0,13.41-2.77C716.24-4.89,698.12-15.51,691.34-3.83Z"/><path class="cls-9" d="M671.06,41a7.92,7.92,0,0,0,2.59,10.3,8.09,8.09,0,0,0,10.46-2.16C690.47,40.18,676.34,31.9,671.06,41Z"/><path class="cls-9" d="M690.61,34.22c1.3,2.75,3.7,5.25,6.73,5.56,9.46,1,13.53-13,6.67-18.43C695.37,14.49,686.48,25.48,690.61,34.22Z"/><path class="cls-9" d="M667.75,10.26A9.82,9.82,0,0,0,664,21.76a10,10,0,0,0,10.51,6c6.24-1,10.16-8.14,7.84-14C680.32,8.75,672,7.55,667.75,10.26Z"/><path class="cls-9" d="M725,6.64a10.93,10.93,0,0,0-9.9,9.1A11.09,11.09,0,0,0,722,27.3c6.57,2.46,14.28-2.38,15.2-9.3C738,12,730.64,6.35,725,6.64Z"/><path class="cls-7" d="M381.55,19a1.88,1.88,0,0,0,0-3.75,1.88,1.88,0,0,0,0,3.75Z"/><path class="cls-7" d="M407.73,24.61a1.88,1.88,0,0,0,0-3.75,1.88,1.88,0,0,0,0,3.75Z"/><path class="cls-7" d="M383.13,49.85a1.88,1.88,0,0,0,0-3.75,1.88,1.88,0,0,0,0,3.75Z"/><path class="cls-7" d="M388.66,34.64a1.88,1.88,0,0,0,0-3.75,1.88,1.88,0,0,0,0,3.75Z"/><path class="cls-7" d="M429.7,50.31a1.88,1.88,0,0,0,0-3.75,1.88,1.88,0,0,0,0,3.75Z"/><path class="cls-7" d="M400.19,56.77a1.88,1.88,0,0,0,0-3.75,1.88,1.88,0,0,0,0,3.75Z"/><path class="cls-7" d="M409.41,42.94a1.88,1.88,0,0,0,0-3.75,1.88,1.88,0,0,0,0,3.75Z"/><path class="cls-7" d="M421.86,78.44a1.88,1.88,0,0,0,0-3.75,1.88,1.88,0,0,0,0,3.75Z"/><path class="cls-7" d="M449.52,61.38a1.88,1.88,0,0,0,0-3.75,1.88,1.88,0,0,0,0,3.75Z"/><path class="cls-7" d="M446.76,25a1.88,1.88,0,0,0,0-3.75,1.88,1.88,0,0,0,0,3.75Z"/><path class="cls-7" d="M427.85,29.1a1.88,1.88,0,0,0,0-3.75,1.88,1.88,0,0,0,0,3.75Z"/><path class="cls-7" d="M373.91,63.68a1.88,1.88,0,0,0,0-3.75,1.88,1.88,0,0,0,0,3.75Z"/><path class="cls-7" d="M392.81,78.44a1.88,1.88,0,0,0,0-3.75,1.88,1.88,0,0,0,0,3.75Z"/><path class="cls-7" d="M405.72,74.75a1.88,1.88,0,0,0,0-3.75,1.88,1.88,0,0,0,0,3.75Z"/><path class="cls-7" d="M417.71,62.76a1.88,1.88,0,0,0,0-3.75,1.88,1.88,0,0,0,0,3.75Z"/><path class="cls-7" d="M444.45,76.13a1.88,1.88,0,0,0,0-3.75,1.88,1.88,0,0,0,0,3.75Z"/></g></g></g></svg>